<svg version="1.1" id="レイヤー_1" xmlns="http://www.w3.org/2000/svg" x="0" y="0" viewBox="0 0 174 19" xml:space="preserve"><path d="M98.4 1.8c-1.8 1.5-3.1 4.2-3.1 7.8 0 3.5 1.3 6.1 3.1 7.8v1.3c-2.4-1.7-4.3-5-4.3-9.1 0-4 1.9-7.5 4.3-9.1v1.3zm71.3 15.5c1.8-1.5 3.1-4.2 3.1-7.7s-1.3-6.1-3.1-7.8V.4c2.4 1.7 4.3 5 4.3 9.1 0 4-1.9 7.5-4.3 9.1v-1.3zm-6.2-13.6c.8.5 1.7 1.4 2 1.7-.4.3-.7.7-1.1 1-.5-.6-1.2-1.3-1.9-1.8l1-.9zm1.8-1.5c.4.3 1.5 1.2 2 1.7-.3.3-.7.6-1 .9-.9-.9-1.4-1.3-2-1.7l1-.9zm-61.1 15.1c-.6-.5-.8-.7-1.4-1.1 3.9-2.2 5.4-4.9 5.2-9.9l1.9.2c.1 0 .2.2 0 .3h-.1v.1c-.2 2.6-.4 7.4-5.6 10.4zm7-6.6c-.3-.4-.7-.8-1.2-1.2 2.5-1.9 3.4-2.9 4.4-4.5l.1-.2h-13.1V3.2H115c.3 0 .7-.1 1-.1l1.2 1.1c-.2.2-.3.3-.5.7-2.3 3.1-4.6 5-5.5 5.8zm19.5 6.4v-1.2h-10.3v-1.5h10.3v-4.1H121V8.8h9.7v-4h-10V3.3h11.7v13.8zm11.1-10.3c-2.2-1.9-3.9-2.8-4.8-3.2l1-1.4c1.2.6 3 1.6 4.8 3.2-.3.3-.5.7-1 1.4zm-3.7 10l-1-1.7c2.8-.6 9.2-2.8 13.5-9.7l.1.1c.4.6.5.8 1 1.3-3.8 6-9.3 8.5-13.1 9.8h-.1v.1c-.1.3-.3.4-.4.1zm18.1.5V1.8l1.8.1c.2 0 .2.2.1.2h-.1v4h.1s.4.1.8.4c1.9.9 4.6 2.4 6.7 4.4-.2.3-.5.7-1 1.4-2.4-2.3-5-3.7-6.4-4.4l-.2-.1v9.4h-1.8zm-92.1-3.4L55.3.5h-3.6v18.1h3.1V5.2l8.8 13.4h3.6V.5h-3.1zM83.6 3.1c-1.7-1.7-4-2.7-6.4-2.7h-6v18.2h6c2.4 0 4.7-.9 6.4-2.7 1.7-1.7 2.6-4 2.6-6.4 0-2.4-.9-4.7-2.6-6.4zm-6.5 12.3h-2.8V3.6h2.8c3.2 0 5.8 2.7 5.8 5.9 0 3.3-2.6 5.9-5.8 5.9zM39 .1c-2.5 0-4.9 1-6.6 2.8-1.7 1.8-2.7 4.2-2.7 6.7s1 4.9 2.7 6.7C34.2 18 36.5 19 39 19s4.9-1 6.6-2.8c1.7-1.8 2.7-4.2 2.7-6.7s-1-4.9-2.7-6.7C43.9 1 41.6.1 39 .1zm0 15.7c-3.4 0-6.1-2.8-6.1-6.3s2.7-6.3 6.1-6.3 6.1 2.8 6.1 6.3-2.7 6.3-6.1 6.3zM9.8.5H6.9L0 18.6h3.3l1.1-3.1h8.9l1.1 3.1h3.3L10.8.5h-1zM5.4 12.8l3.4-9.4 3.4 9.4H5.4zM28.9.5h-3.3L22 10.4 18.5.5h-3.3l5.4 14.2v3.9h2.9v-4.1z" fill="#2f1dff"/></svg>